<?xml version="1.0" encoding="UTF-8"?>
<!DOCTYPE svg PUBLIC "-//W3C//DTD SVG 1.1//EN" "http://www.w3.org/Graphics/SVG/1.1/DTD/svg11.dtd">
<!-- Creator: CorelDRAW -->
<svg xmlns="http://www.w3.org/2000/svg" xml:space="preserve" width="100px" height="90px" version="1.1" style="shape-rendering:geometricPrecision; text-rendering:geometricPrecision; image-rendering:optimizeQuality; fill-rule:evenodd; clip-rule:evenodd"
viewBox="0 0 56.9 51.15"
 xmlns:xlink="http://www.w3.org/1999/xlink"
 xmlns:xodm="http://www.corel.com/coreldraw/odm/2003">
 <defs>
  <style type="text/css">
   <![CDATA[
    .fil2 {fill:black;fill-rule:nonzero}
    .fil0 {fill:#64DB59;fill-rule:nonzero}
    .fil1 {fill:#FC527B;fill-rule:nonzero}
   ]]>
  </style>
 </defs>
 <g id="Layer_x0020_1">
  <metadata id="CorelCorpID_0Corel-Layer"/>
  <path class="fil0" d="M37.1 51.15l-37.1 0 0 -43.64 31.07 -0.11 0 12.13 16.01 1.44 -9.98 30.18zm-33.47 -3.63l30.84 0 7.72 -23.34 -14.75 -1.33 0 -11.81 -23.81 0.09 0 36.39z"/>
  <polygon class="fil1" points="38.45,12.44 38.45,0 0.01,0 0.01,3.62 34.82,3.62 34.82,15.76 52.02,17.39 40.66,51.15 44.56,51.15 56.9,14.19 "/>
  <path class="fil2" d="M5.5 15.17l0.66 0 0 -0.67 0.67 0 0 -0.66 0.65 0 0 -0.66 0.66 0 0 -0.66 2.02 0 0 0.66 0.66 0 0 0.67 0.67 0 0 0.66 0.66 0 0 0.66 0.66 0 0 7.32 -2 0 0 -2.65 -3.3 0 0 2.66 -2.01 0 0 -7.33zm5.31 2.66l0 -1.31 -0.66 0 0 -0.66 -0.67 0 0 -0.67 -0.64 0 0 0.67 -0.68 0 0 0.66 -0.66 0 0 1.31 3.31 0z"/>
  <path class="fil2" d="M5.5 24.28l5.99 0 0 0.66 0.67 0 0 0.67 0.65 0 0 3.35 -0.66 0 0 0.67 -0.66 0 0 0.66 -3.98 0 0 3.98 -2.01 -0.01 0 -9.98zm4.65 3.99l0 -0.66 0.66 0 0 -0.65 -0.66 0 0 -0.66 -2.63 0 0 1.98 2.63 -0.01z"/>
  <polygon class="fil2" points="14.19,24.28 16.2,24.28 16.2,32.25 21.5,32.25 21.5,34.25 14.19,34.26 "/>
  <polygon class="fil2" points="22.87,32.25 24.2,32.25 24.2,26.3 22.87,26.3 22.87,24.29 27.53,24.29 27.53,26.3 26.21,26.3 26.21,32.25 27.53,32.25 27.53,34.26 22.87,34.26 "/>
  <polygon class="fil2" points="30.23,33.6 29.57,33.6 29.57,32.94 28.9,32.94 28.9,25.62 29.57,25.62 29.57,24.95 30.23,24.95 30.23,24.29 34.9,24.29 34.9,24.95 35.56,24.95 35.56,25.62 36.22,25.62 36.22,27.63 34.21,27.63 34.21,26.96 33.55,26.96 33.55,26.3 31.58,26.3 31.58,26.96 30.91,26.96 30.91,31.59 31.58,31.59 31.58,32.25 33.55,32.25 33.55,31.59 34.21,31.59 34.21,30.92 36.22,30.92 36.22,32.94 35.56,32.94 35.56,33.6 34.9,33.6 34.9,34.26 30.23,34.26 "/>
  <path class="fil2" d="M5.5 38.71l0.66 0 0 -0.66 0.67 0 0 -0.66 0.65 0 0 -0.67 0.66 0 0 -0.66 2.02 0 0 0.66 0.66 0 0 0.67 0.67 0 0 0.66 0.66 0 0 0.66 0.66 0 0 7.32 -2 0 0 -2.65 -3.3 0 0 2.65 -2.01 0 0 -7.32zm5.31 2.66l0 -1.31 -0.67 0 0 -0.66 -0.66 0 0 -0.67 -0.64 0 0 0.67 -0.68 0 0 0.66 -0.66 0 0 1.31 3.31 0z"/>
  <polygon class="fil2" points="16.84,38.07 14.19,38.07 14.19,36.06 21.5,36.06 21.5,38.07 18.85,38.07 18.85,46.03 16.84,46.03 "/>
  <path class="fil2" d="M22.87 38.71l0.66 0 0 -0.66 0.67 0 0 -0.66 0.66 0 0 -0.67 0.66 0 0 -0.66 2.01 0 0 0.66 0.67 0 0 0.67 0.66 0 0 0.66 0.67 0 0 0.66 0.66 0 0 7.32 -2.01 0 0 -2.65 -3.3 0 0 2.65 -2.01 0 0 -7.32zm5.31 2.66l0 -1.31 -0.66 0 0 -0.66 -0.67 0 0 -0.67 -0.64 0 0 0.67 -0.67 0 0 0.66 -0.66 0 0 1.31 3.3 0z"/>
  <polygon class="fil2" points="22.87,13.85 22.87,12.52 24.88,12.52 24.88,22.5 22.87,22.5 22.87,17.18 22.23,17.18 22.23,17.85 21.59,17.85 21.59,18.52 20.9,18.52 20.9,19.19 18.17,19.19 18.17,18.52 17.53,18.52 17.53,17.85 16.84,17.85 16.84,17.19 16.2,17.19 16.2,22.5 14.19,22.5 14.19,12.52 16.2,12.52 16.2,13.85 16.86,13.85 16.86,14.51 17.52,14.51 17.52,15.18 18.21,15.18 18.21,15.84 18.85,15.84 18.85,16.51 20.21,16.51 20.21,15.84 20.91,15.84 20.91,15.18 21.54,15.18 21.54,14.51 22.21,14.51 22.21,13.85 "/>
 </g>
</svg>
