<?xml version="1.0" encoding="UTF-8"?>
<!DOCTYPE svg PUBLIC "-//W3C//DTD SVG 1.1//EN" "http://www.w3.org/Graphics/SVG/1.1/DTD/svg11.dtd">
<!-- Creator: CorelDRAW -->
<svg xmlns="http://www.w3.org/2000/svg" xml:space="preserve" width="404px" height="384px" version="1.1" style="shape-rendering:geometricPrecision; text-rendering:geometricPrecision; image-rendering:optimizeQuality; fill-rule:evenodd; clip-rule:evenodd"
viewBox="0 0 11.3 10.75"
 xmlns:xlink="http://www.w3.org/1999/xlink"
 xmlns:xodm="http://www.corel.com/coreldraw/odm/2003">
 <defs>
  <style type="text/css">
   <![CDATA[
    .fil0 {fill:black}
   ]]>
  </style>
 </defs>
 <g id="Layer_x0020_1">
  <metadata id="CorelCorpID_0Corel-Layer"/>
  <path class="fil0" d="M4.66 0.74c0,-1.29 1.68,-0.72 2.29,0.43 0.36,0.68 0.29,1.66 0.12,2.57l2.63 0c1.1,0.04 2.05,0.83 1.38,2.12 0.36,0.28 0.08,1.37 -0.34,1.63 0.37,0.63 -0.1,1.28 -0.55,1.72 0.22,0.77 -0.4,1.52 -1.54,1.52l-4.45 0c-0.71,0 -1.09,-0.2 -1.55,-0.78l0 -4.96c1.88,-0.5 2.01,-2.67 2.01,-4.25zm5.23 5.27c0.19,-0.13 0.63,-0.75 0.36,-1.1 -0.13,-0.17 -0.35,-0.25 -0.57,-0.25l-3.73 0c0.08,-0.43 0.27,-1.11 0.33,-1.74 0.08,-0.79 0.03,-1.42 -0.69,-1.89 0,1.74 -0.23,3.67 -2.02,4.6l0 3.97c0.17,0.16 0.32,0.2 0.63,0.2l4.45 0c0.85,0 0.81,-0.67 0.49,-0.88 0.91,-0.76 0.99,-1.19 0.34,-1.75 0.68,-0.02 0.87,-0.98 0.41,-1.16z"/>
  <path class="fil0" d="M1.72 4.29c0.23,0 0.42,0.19 0.42,0.42l0 5.61c0,0.23 -0.19,0.43 -0.42,0.43l-1.3 0c-0.23,0 -0.42,-0.19 -0.42,-0.43l0 -5.61c0,-0.23 0.19,-0.42 0.42,-0.42l1.3 0z"/>
 </g>
</svg>
