<?xml version="1.0" encoding="UTF-8"?>
<!DOCTYPE svg PUBLIC "-//W3C//DTD SVG 1.1//EN" "http://www.w3.org/Graphics/SVG/1.1/DTD/svg11.dtd">
<!-- Creator: CorelDRAW -->
<svg xmlns="http://www.w3.org/2000/svg" xml:space="preserve" width="384px" height="384px" version="1.1" style="shape-rendering:geometricPrecision; text-rendering:geometricPrecision; image-rendering:optimizeQuality; fill-rule:evenodd; clip-rule:evenodd"
viewBox="0 0 33.41 33.39"
 xmlns:xlink="http://www.w3.org/1999/xlink"
 xmlns:xodm="http://www.corel.com/coreldraw/odm/2003"
 data-name="Layer 1">
 <defs>
  <style type="text/css">
   <![CDATA[
    .fil0 {fill:black}
   ]]>
  </style>
 </defs>
 <g id="Layer_x0020_1">
  <metadata id="CorelCorpID_0Corel-Layer"/>
  <g id="_1904344380976">
   <path class="fil0" d="M19.98 4.31c1.09,0.32 2.13,0.8 3.1,1.4l1.66 -1.68c0.39,-0.38 0.91,-0.6 1.46,-0.6 0.55,0 1.07,0.22 1.46,0.6l1.7 1.72c0.39,0.39 0.61,0.91 0.61,1.46 0,0.54 -0.22,1.07 -0.61,1.46l-1.79 1.79c0.52,0.93 0.91,1.94 1.18,2.97l2.59 0c0,0 0,0 0,0 1.15,0 2.07,0.93 2.07,2.07 0,0 0,0 0,0l0 2.42c0,1.13 -0.92,2.06 -2.06,2.06l-2.61 0c-0.27,1.02 -0.68,2.01 -1.19,2.94l1.81 1.82c0.39,0.39 0.61,0.91 0.61,1.46 0,0.55 -0.22,1.07 -0.61,1.46l-1.7 1.7c-0.39,0.39 -0.91,0.61 -1.46,0.61 -0.55,0 -1.07,-0.22 -1.46,-0.61l-1.72 -1.72c-0.95,0.58 -1.98,1.04 -3.04,1.36l0 2.33c-0.01,1.14 -0.93,2.06 -2.06,2.06l-2.42 0c-1.14,0 -2.06,-0.92 -2.06,-2.06l0 -2.11c-1.17,-0.26 -2.31,-0.69 -3.36,-1.27l-1.41 1.41c-0.39,0.39 -0.92,0.6 -1.46,0.6 -0.55,0 -1.07,-0.21 -1.46,-0.6l-1.71 -1.71c-0.39,-0.39 -0.61,-0.91 -0.61,-1.46 0,-0.54 0.22,-1.07 0.6,-1.46l1.29 -1.28c-0.67,-1.07 -1.18,-2.25 -1.51,-3.47l-1.75 0c-1.14,0 -2.06,-0.93 -2.06,-2.06l0 -2.42c0,0 0,0 0,0 0,-1.14 0.92,-2.07 2.06,-2.07l1.73 0c0.32,-1.24 0.82,-2.43 1.5,-3.52l-1.25 -1.24c-0.39,-0.39 -0.6,-0.92 -0.6,-1.46 0,-0.55 0.21,-1.07 0.6,-1.46l1.71 -1.72c0.39,-0.38 0.91,-0.6 1.46,-0.6 0.54,0 1.07,0.22 1.46,0.6l1.35 1.36c1.07,-0.6 2.22,-1.04 3.41,-1.31l0 -2.02c0,-1.14 0.93,-2.06 2.07,-2.06 0,0 0,0 0,0l2.42 0c1.13,0 2.06,0.92 2.06,2.06l0 2.25 0 0zm-3.7 5.66c3.69,0 6.68,3 6.68,6.69 0,3.7 -2.99,6.69 -6.68,6.69 -3.7,0 -6.69,-2.99 -6.69,-6.69 0,0 0,0 0,0 0,0 0,0 0,0 0,-3.69 2.99,-6.69 6.68,-6.69 0,0 0,0 0.01,0l0 0z"/>
  </g>
 </g>
</svg>
