<?xml version="1.0" encoding="UTF-8"?>
<!DOCTYPE svg PUBLIC "-//W3C//DTD SVG 1.1//EN" "http://www.w3.org/Graphics/SVG/1.1/DTD/svg11.dtd">
<!-- Creator: CorelDRAW -->
<svg xmlns="http://www.w3.org/2000/svg" xml:space="preserve" width="383px" height="383px" version="1.1" style="shape-rendering:geometricPrecision; text-rendering:geometricPrecision; image-rendering:optimizeQuality; fill-rule:evenodd; clip-rule:evenodd"
viewBox="0 0 9.28 9.28"
 xmlns:xlink="http://www.w3.org/1999/xlink"
 xmlns:xodm="http://www.corel.com/coreldraw/odm/2003">
 <defs>
  <style type="text/css">
   <![CDATA[
    .fil0 {fill:none}
    .fil1 {fill:black}
   ]]>
  </style>
 </defs>
 <g id="Layer_x0020_1">
  <metadata id="CorelCorpID_0Corel-Layer"/>
  <rect class="fil0" width="9.28" height="9.28"/>
  <path class="fil1" d="M7.01 2.08l-3.93 0 2.16 2.17c0.21,0.21 0.21,0.55 0,0.76l-2.21 2.19 3.98 0 0 -0.53 1.08 0 0 1.07c0,0.29 -0.24,0.53 -0.54,0.53l-5.97 0c-0.1,0 -0.25,-0.08 -0.32,-0.18 -0.14,-0.19 -0.11,-0.54 0.09,-0.73l2.75 -2.73 -2.67 -2.69c-0.11,-0.1 -0.18,-0.24 -0.18,-0.4 0,-0.29 0.24,-0.53 0.54,-0.53l5.76 0c0.3,0 0.54,0.24 0.54,0.53l0 1.08 -1.08 0 0 -0.54z"/>
 </g>
</svg>
