<?xml version="1.0" encoding="UTF-8"?>
<!DOCTYPE svg PUBLIC "-//W3C//DTD SVG 1.1//EN" "http://www.w3.org/Graphics/SVG/1.1/DTD/svg11.dtd">
<!-- Creator: CorelDRAW -->
<svg xmlns="http://www.w3.org/2000/svg" xml:space="preserve" width="383px" height="384px" version="1.1" style="shape-rendering:geometricPrecision; text-rendering:geometricPrecision; image-rendering:optimizeQuality; fill-rule:evenodd; clip-rule:evenodd"
viewBox="0 0 18.34 18.35"
 xmlns:xlink="http://www.w3.org/1999/xlink"
 xmlns:xodm="http://www.corel.com/coreldraw/odm/2003">
 <defs>
  <style type="text/css">
   <![CDATA[
    .fil0 {fill:black}
   ]]>
  </style>
 </defs>
 <g id="Layer_x0020_1">
  <metadata id="CorelCorpID_0Corel-Layer"/>
  <path class="fil0" d="M14.09 9.85c-2.35,0 -4.26,1.9 -4.26,4.25 0,2.35 1.91,4.25 4.26,4.25 2.34,0 4.25,-1.9 4.25,-4.25 0,-2.35 -1.91,-4.25 -4.25,-4.25zm-4.92 -9.85c5.06,0 9.17,4.1 9.17,9.17 0,0.57 -0.05,1.13 -0.15,1.67 -0.57,-0.71 -1.32,-1.27 -2.18,-1.61 0,-0.02 0,-0.04 0,-0.06 0,-3.78 -3.06,-6.85 -6.84,-6.85 -3.78,0 -6.85,3.07 -6.85,6.85 0,3.78 3.07,6.84 6.85,6.84l0.03 0c0.34,0.86 0.9,1.61 1.61,2.18 -0.53,0.1 -1.08,0.15 -1.64,0.15 -5.07,0 -9.17,-4.11 -9.17,-9.17 0,-5.07 4.1,-9.17 9.17,-9.17zm-3.8 12.96c-0.42,-0.42 -0.42,-1.1 0,-1.52l2.72 -2.72 0 -3.84c0,-0.59 0.48,-1.08 1.08,-1.08 0.59,0 1.08,0.49 1.08,1.08l0 4.29c0,0.28 -0.12,0.56 -0.32,0.76l-3.03 3.03c-0.42,0.42 -1.11,0.42 -1.53,0zm7.93 4.05c0,0.21 0.17,0.38 0.38,0.38l0.8 0c0.2,0 0.37,-0.17 0.37,-0.38l0 -0.8c0,-0.21 -0.17,-0.38 -0.37,-0.38l-0.8 0c-0.21,0 -0.38,0.17 -0.38,0.38l0 0.8zm0.02 -2.23c0,0.24 0.2,0.45 0.45,0.45l0.61 0c0.25,0 0.45,-0.21 0.45,-0.45l0 -3.54c0,-0.24 -0.2,-0.45 -0.45,-0.45l-0.61 0c-0.25,0 -0.45,0.21 -0.45,0.45l0 3.54z"/>
 </g>
</svg>
