<?xml version="1.0" encoding="UTF-8"?>
<!DOCTYPE svg PUBLIC "-//W3C//DTD SVG 1.1//EN" "http://www.w3.org/Graphics/SVG/1.1/DTD/svg11.dtd">
<!-- Creator: CorelDRAW 2020 (64-Bit) -->
<svg xmlns="http://www.w3.org/2000/svg" xml:space="preserve" width="295px" height="300px" version="1.1" style="shape-rendering:geometricPrecision; text-rendering:geometricPrecision; image-rendering:optimizeQuality; fill-rule:evenodd; clip-rule:evenodd"
viewBox="0 0 35.11 35.66"
 xmlns:xlink="http://www.w3.org/1999/xlink"
 xmlns:xodm="http://www.corel.com/coreldraw/odm/2003">
 <defs>
  <style type="text/css">
   <![CDATA[
    .fil0 {fill:#5DF4F4}
   ]]>
  </style>
 </defs>
 <g id="Layer_x0020_1">
  <metadata id="CorelCorpID_0Corel-Layer"/>
  <path class="fil0" d="M17.51 0c-0.43,0 -0.82,0.19 -1.09,0.49l-5.08 5.66c-0.25,0.28 -0.4,0.65 -0.4,1.05 0,0.88 0.7,1.58 1.58,1.58l2.84 0 0 6.81c0,1.18 0.96,2.15 2.15,2.15 1.19,0 2.15,-0.97 2.15,-2.15l0 -6.81 2.84 0c0.88,0 1.59,-0.7 1.59,-1.58 0,-0.4 -0.15,-0.77 -0.41,-1.05l-5.07 -5.66c-0.27,-0.3 -0.66,-0.49 -1.1,-0.49zm11.09 20.05c3.6,0 6.51,1.52 6.51,3.38 0,1.87 -2.91,3.38 -6.51,3.38 -0.93,0 -1.81,-0.1 -2.61,-0.28 -0.11,-0.32 -0.26,-0.63 -0.44,-0.92 0.41,-0.64 0.66,-1.38 0.66,-2.21 0,-1.1 -0.44,-2.05 -1.11,-2.82 1.01,-0.33 2.21,-0.53 3.5,-0.53zm6.17 6.71c0.22,0.35 0.34,0.71 0.34,1.1 0,1.86 -2.91,3.37 -6.51,3.37 -0.93,0 -1.82,-0.1 -2.62,-0.28 -0.11,-0.31 -0.26,-0.61 -0.44,-0.9 0.25,-0.38 0.44,-0.8 0.55,-1.26 0.77,0.17 1.62,0.26 2.51,0.26 2.86,0 5.29,-0.96 6.17,-2.29zm-25.77 4.34c-0.77,0.16 -1.61,0.25 -2.49,0.25 -3.59,0 -6.51,-1.51 -6.51,-3.37 0,-0.39 0.12,-0.75 0.35,-1.1 0.87,1.33 3.3,2.29 6.16,2.29 0.87,0 1.7,-0.09 2.46,-0.25 0.11,0.41 0.29,0.78 0.51,1.13 -0.2,0.33 -0.37,0.68 -0.48,1.05zm-2.49 -15.38c3.28,0 5.99,1.26 6.45,2.89 -0.37,0.14 -0.72,0.29 -1.06,0.47 -1.32,0.68 -2.48,1.74 -2.91,3.14 -0.76,0.16 -1.6,0.26 -2.48,0.26 -3.59,0 -6.51,-1.52 -6.51,-3.38 0,-1.87 2.92,-3.38 6.51,-3.38zm2.49 10.92c-0.77,0.17 -1.61,0.26 -2.49,0.26 -3.59,0 -6.51,-1.51 -6.51,-3.38 0,-0.38 0.12,-0.75 0.35,-1.09 0.87,1.33 3.3,2.29 6.16,2.29 0.87,0 1.7,-0.09 2.45,-0.25 0.11,0.41 0.29,0.79 0.51,1.14 -0.2,0.33 -0.36,0.67 -0.47,1.03zm14.68 4.55c0.22,0.34 0.34,0.71 0.34,1.09 0,1.86 -2.91,3.38 -6.51,3.38 -3.59,0 -6.51,-1.52 -6.51,-3.38 0,-0.38 0.12,-0.75 0.35,-1.09 0.87,1.33 3.3,2.28 6.16,2.28 2.86,0 5.29,-0.95 6.17,-2.28zm-6.17 -11.17c3.6,0 6.51,1.52 6.51,3.38 0,1.87 -2.91,3.38 -6.51,3.38 -3.59,0 -6.51,-1.51 -6.51,-3.38 0,-1.86 2.92,-3.38 6.51,-3.38zm6.17 6.71c0.22,0.35 0.34,0.71 0.34,1.1 0,1.86 -2.91,3.37 -6.51,3.37 -3.59,0 -6.51,-1.51 -6.51,-3.37 0,-0.39 0.12,-0.75 0.35,-1.1 0.87,1.33 3.3,2.29 6.16,2.29 2.86,0 5.29,-0.96 6.17,-2.29z"/>
 </g>
</svg>
