<?xml version="1.0" encoding="UTF-8"?>
<!DOCTYPE svg PUBLIC "-//W3C//DTD SVG 1.1//EN" "http://www.w3.org/Graphics/SVG/1.1/DTD/svg11.dtd">
<!-- Creator: CorelDRAW -->
<svg xmlns="http://www.w3.org/2000/svg" xml:space="preserve" width="404px" height="384px" version="1.1" style="shape-rendering:geometricPrecision; text-rendering:geometricPrecision; image-rendering:optimizeQuality; fill-rule:evenodd; clip-rule:evenodd"
viewBox="0 0 11.3 10.75"
 xmlns:xlink="http://www.w3.org/1999/xlink"
 xmlns:xodm="http://www.corel.com/coreldraw/odm/2003">
 <defs>
  <style type="text/css">
   <![CDATA[
    .fil0 {fill:black}
   ]]>
  </style>
 </defs>
 <g id="Layer_x0020_1">
  <metadata id="CorelCorpID_0Corel-Layer"/>
  <path class="fil0" d="M6.64 10.01c0,1.29 -1.67,0.72 -2.29,-0.43 -0.36,-0.68 -0.29,-1.66 -0.11,-2.57l-2.64 0c-1.1,-0.04 -2.05,-0.83 -1.38,-2.12 -0.36,-0.28 -0.08,-1.37 0.34,-1.63 -0.37,-0.64 0.1,-1.28 0.56,-1.72 -0.23,-0.77 0.39,-1.52 1.54,-1.52l4.45 0c0.7,0 1.08,0.2 1.55,0.77l0 4.96c-1.88,0.51 -2.02,2.68 -2.02,4.26zm-5.22 -5.28c-0.2,0.13 -0.64,0.75 -0.37,1.11 0.13,0.17 0.36,0.25 0.57,0.24l3.74 0c-0.09,0.44 -0.28,1.11 -0.34,1.74 -0.08,0.79 -0.02,1.43 0.7,1.89 0,-1.73 0.23,-3.67 2.01,-4.59l0 -3.98c-0.16,-0.15 -0.31,-0.19 -0.62,-0.19l-4.45 0c-0.86,0 -0.81,0.67 -0.5,0.87 -0.9,0.76 -0.98,1.2 -0.34,1.75 -0.68,0.03 -0.87,0.99 -0.4,1.16z"/>
  <path class="fil0" d="M9.59 6.46c-0.23,0 -0.42,-0.19 -0.42,-0.43l0 -5.61c0,-0.23 0.19,-0.42 0.42,-0.42l1.29 0c0.23,0 0.42,0.19 0.42,0.42l0 5.61c0,0.24 -0.19,0.43 -0.42,0.43l-1.29 0z"/>
 </g>
</svg>
